<svg width="580" height="220" viewBox="0 0 580 220" fill="none" xmlns="http://www.w3.org/2000/svg">
<path d="M17.3928 100.69L18.9129 98.3824C20.0267 96.6908 20.5062 94.6471 20.2621 92.6264L19.5829 86.9901C19.5829 86.9901 19.2764 84.0118 13.7459 85.9947C8.21537 87.9775 7.88791 88.0872 8.31949 89.7908C8.31949 89.7908 9.86567 91.9462 13.6342 91.622L17.3928 100.69Z" fill="#E0A78F"/>
<path d="M67.0324 37.6158C67.0324 37.6158 65.5925 52.2956 49.2345 64.1078C31.7925 76.702 44.7903 111.564 76.8169 109.938C111.608 108.173 126.044 62.6626 103.347 28.0946L67.0324 37.6158Z" fill="#A74B22"/>
<path d="M91.4335 80.9189L70.3462 86.9532C64.2604 88.6946 59.3843 95.2695 61.2229 101.428L80.21 145.18L112.342 143.695L123.638 96.2938C124.606 89.8536 118.047 84.0058 111.689 83.2688L91.4335 80.9189Z" fill="#7B97FB"/>
<path d="M70.3463 86.9532L91.4336 80.9189L111.689 83.2688L111.27 83.6268C99.7145 93.4911 83.2927 94.8257 70.3463 86.9532Z" fill="#E0A78F"/>
<path d="M138.782 139.54L114.774 161.237L118.973 168.622L146.699 151.416C151.184 148.504 153.23 142.742 151.236 137.72C151.138 137.473 151.031 137.226 150.916 136.984L147.699 130.167L138.782 139.54Z" fill="#E0A78F"/>
<path d="M131.383 96.6549L151.359 131.442C152.335 133.932 151.05 136.744 148.551 137.587L138.922 140.835C137.454 141.33 135.837 140.925 134.778 139.778C131.233 135.941 115.665 123.849 116.157 109.075L110.623 98.9848L111.689 83.2687C122.01 84.5364 129.465 91.8644 131.383 96.6549Z" fill="#7B97FB"/>
<path d="M118.734 119.616L123.2 104.665C123.267 104.438 123.141 104.196 122.917 104.127C122.693 104.058 122.456 104.186 122.389 104.415L117.924 119.365C117.855 119.593 117.982 119.833 118.206 119.903C118.429 119.973 118.666 119.844 118.734 119.616Z" fill="black"/>
<path d="M122.794 162.294C122.266 162.773 119.132 176.975 119.132 176.975L114.774 161.237L122.794 162.294Z" fill="#E0A78F"/>
<path d="M113.777 159.534L119.239 179.096C119.31 179.349 119.568 179.495 119.815 179.423C120.063 179.352 120.207 179.089 120.137 178.837L114.674 159.275C114.603 159.022 114.346 158.877 114.098 158.948C113.85 159.019 113.706 159.283 113.777 159.534Z" fill="#D4688F"/>
<path d="M54.042 101.18L38.1105 138.068C37.4206 140.654 39.0134 143.299 41.5913 143.845L49.1022 145.569C50.6166 145.889 51.554 149.554 52.4787 148.291C55.5672 144.065 72.7158 126.363 70.5647 111.742L74.9265 101.073L70.3463 86.9533C60.2356 89.4159 55.4095 96.1972 54.042 101.18Z" fill="#7B97FB"/>
<path d="M69.9672 122.17L63.85 107.84C63.757 107.62 63.5072 107.521 63.2927 107.615C63.0781 107.71 62.9802 107.964 63.0732 108.183L69.1894 122.515C69.2835 122.733 69.5323 122.833 69.7477 122.738C69.9623 122.643 70.0602 122.389 69.9672 122.17Z" fill="black"/>
<path d="M17.0521 98.4811L9.56982 101.603L39.7202 145.519C42.1082 150.404 48.3392 151.758 52.4787 148.29C55.9188 145.407 56.5242 140.278 53.852 136.647L17.0521 98.4811Z" fill="#E0A78F"/>
<path d="M10.377 103.121C10.377 103.121 4.09042 101.191 1.70165 91.2351C1.42699 90.0881 1.75601 88.8703 2.56754 88.0275C3.81801 86.7308 7.49271 83.3516 10.0774 84.4248L15.1197 88.7376L17.3929 100.69L10.377 103.121Z" fill="#E0A78F"/>
<path d="M15.5691 86.8097L15.2775 69.9895C15.2598 68.9881 14.4555 68.1862 13.4714 68.1882C12.4885 68.1912 11.6895 68.9961 11.6757 69.9975L11.5013 82.8051L10.2271 83.3567L3.01349 72.0242C2.50648 71.2283 1.45045 71.0219 0.690534 71.5714C0.0251407 72.0522 -0.191434 72.9568 0.18206 73.6959L8.31939 89.791L15.5691 86.8097Z" fill="#E0A78F"/>
<path d="M15.5094 85.1599C15.4979 85.1609 13.669 85.3803 11.8171 85.9917C10.8903 86.2989 9.95634 86.7019 9.23051 87.2455C8.50919 87.7831 7.96819 88.5002 7.96741 89.4028C7.96741 89.5504 7.982 89.7 8.01139 89.8527L8.31945 89.7908L8.00874 89.8377C8.01482 89.8806 8.10552 90.4441 8.66796 90.9997C9.23011 91.5562 10.2482 92.0699 12.0076 92.0679C12.5019 92.0679 13.056 92.028 13.6782 91.9382L13.6342 91.622L13.4872 91.3398C13.4662 91.3518 12.8544 91.6819 12.2352 92.3881C11.6169 93.0922 10.9901 94.1904 10.9913 95.6885C10.9913 96.0086 11.0196 96.3468 11.082 96.7008C11.1123 96.8744 11.2753 96.9901 11.4459 96.9591C11.6165 96.9282 11.7302 96.7627 11.6996 96.5891C11.6437 96.2699 11.6188 95.9697 11.6188 95.6885C11.62 94.3759 12.1575 93.4403 12.704 92.814C12.9768 92.5018 13.2508 92.2714 13.4547 92.1207C13.5565 92.0449 13.6406 91.9891 13.698 91.9532L13.7631 91.9143L13.7807 91.9043C13.9154 91.8315 13.9797 91.6709 13.9326 91.5233C13.8851 91.3757 13.7408 91.2839 13.5898 91.3059C12.994 91.3916 12.469 91.4286 12.0076 91.4286C10.3612 91.4266 9.53505 90.9628 9.10454 90.5399C8.88875 90.3274 8.76944 90.119 8.70362 89.9674L8.64083 89.7908L8.63055 89.7489L8.62937 89.742L8.51721 89.7619L8.62977 89.7449L8.62937 89.742L8.51721 89.7619L8.62977 89.7449L8.62702 89.73C8.60528 89.6163 8.59489 89.5075 8.59489 89.4028C8.5945 88.7804 8.96183 88.2438 9.60273 87.7601C10.5571 87.04 12.0642 86.5323 13.3211 86.2251C13.9502 86.0705 14.518 85.9618 14.9271 85.893C15.3361 85.8241 15.5825 85.7942 15.5828 85.7942C15.755 85.7733 15.8783 85.6147 15.858 85.4391C15.8373 85.2636 15.6816 85.1389 15.5094 85.1599Z" fill="#B9635E"/>
<path d="M77.68 53.9761C78.0395 57.2137 75.7533 60.1351 72.5737 60.5011C69.3942 60.8662 66.5252 58.5382 66.1657 55.3007C65.8072 52.0631 68.0934 49.1417 71.2729 48.7767C74.4525 48.4106 77.3205 50.7385 77.68 53.9761Z" fill="#E0A78F"/>
<path d="M68.7427 54.3772L68.6849 54.2784L68.7408 54.3792L68.7427 54.3772L68.6849 54.2784L68.7408 54.3792C68.7496 54.3732 69.0562 54.2006 69.5499 54.2016C70.307 54.2066 71.5696 54.5816 73.0331 56.8138C73.132 56.9654 73.3328 57.0073 73.4817 56.9066C73.6306 56.8058 73.6717 56.6014 73.5728 56.4488C72.0477 54.0969 70.549 53.5364 69.5499 53.5424C68.8642 53.5424 68.444 53.7917 68.4107 53.8106C68.2579 53.9044 68.2069 54.1069 68.299 54.2635C68.3901 54.4191 68.5889 54.4709 68.7427 54.3772Z" fill="#B9635E"/>
<path d="M98.7721 52.3304C99.0415 55.577 101.845 57.9867 105.033 57.7124C108.222 57.4381 110.588 54.5846 110.319 51.337C110.05 48.0905 107.247 45.6807 104.059 45.955C100.869 46.2293 98.5027 49.0829 98.7721 52.3304Z" fill="#E0A78F"/>
<path d="M107.831 50.3227C107.805 50.3137 107.569 50.2309 107.194 50.2309C106.734 50.2299 106.058 50.3616 105.351 50.9002C104.642 51.4368 103.908 52.3674 103.276 53.9373C103.208 54.1059 103.287 54.2984 103.452 54.3672C103.618 54.437 103.807 54.3562 103.875 54.1876C104.476 52.6975 105.147 51.8766 105.738 51.4288C106.329 50.981 106.847 50.8922 107.194 50.8902C107.335 50.8902 107.446 50.9062 107.519 50.9211L107.6 50.9401L107.616 50.9451L107.625 50.9152L107.615 50.9441L107.616 50.9451L107.625 50.9152L107.615 50.9441C107.784 51.0049 107.969 50.9152 108.029 50.7436C108.088 50.5721 108 50.3835 107.831 50.3227Z" fill="#B9635E"/>
<path d="M106.745 37.2447C107.609 47.6675 99.4186 56.8825 88.4519 57.8261C77.4841 58.7686 67.8925 51.0826 67.0286 40.6598C66.1637 30.2349 74.3545 21.0209 85.3213 20.0784C96.2891 19.1348 105.881 26.8208 106.745 37.2447Z" fill="#A74B22"/>
<path d="M94.7766 64.4918C94.7766 64.4918 92.4728 67.0411 90.2434 67.8111C88.013 68.5801 85.6514 67.0142 85.621 66.9952L82.7902 65.1919L83.3269 84.6313L83.6492 84.9285C87.868 88.8264 93.4405 88.4064 96.9972 83.9231L97.5173 83.2669L94.7766 64.4918Z" fill="#E0A78F"/>
<path d="M80.7802 62.7902C80.7802 62.7902 84.9206 73.8205 90.6283 73.218C95.3203 72.7223 95.7503 62.0681 95.7503 62.0681L80.7802 62.7902Z" fill="#1E0B02"/>
<path d="M102.908 40.9042C103.466 47.2616 103.017 52.8321 102.43 56.8108C101.854 60.7056 99.5254 63.6031 96.0922 66.0766L95.4672 66.5285C91.8352 69.1466 86.8895 69.6503 82.8068 67.8191C78.6889 65.9719 75.6867 63.3148 74.4818 59.3013C72.2897 52.0023 71.3973 43.7777 71.3973 43.7777C71.3973 43.7777 68.6537 26.6882 85.6749 25.4504C102.696 24.2127 102.908 40.9042 102.908 40.9042Z" fill="#E0A78F"/>
<path d="M86.1842 51.1975L86.3909 53.683L86.5045 53.9075L86.7406 53.9843L88.4087 53.8406C88.587 53.8247 88.7192 53.6651 88.7046 53.4836C88.6889 53.303 88.5322 53.1684 88.3549 53.1833L87.009 53.299L86.8297 51.1417C86.815 50.9601 86.6583 50.8255 86.48 50.8414C86.3018 50.8564 86.1695 51.016 86.1842 51.1975Z" fill="#B9635E"/>
<path d="M74.2183 43.2282L83.1398 41.6293C83.1398 41.6293 82.1377 39.3274 78.535 40.0245C74.8491 40.7377 74.2183 43.2282 74.2183 43.2282Z" fill="black"/>
<path d="M98.9298 41.1028L89.8711 41.0509C89.8711 41.0509 90.4804 38.6092 94.1467 38.6821C97.8983 38.7559 98.9298 41.1028 98.9298 41.1028Z" fill="black"/>
<path d="M81.6618 48.1952C81.7265 48.9692 81.1623 49.6494 80.4021 49.7152C79.642 49.7801 78.974 49.2056 78.9103 48.4326C78.8457 47.6586 79.4099 46.9784 80.17 46.9125C80.9301 46.8477 81.5981 47.4212 81.6618 48.1952Z" fill="#1E0B02"/>
<path d="M95.1617 47.0351C95.2263 47.8091 94.6621 48.4884 93.902 48.5542C93.1419 48.62 92.4739 48.0455 92.4102 47.2715C92.3455 46.4975 92.9098 45.8173 93.6699 45.7525C94.43 45.6867 95.098 46.2612 95.1617 47.0351Z" fill="#1E0B02"/>
<path d="M82.6669 57.8461C82.6972 57.8601 84.0617 58.4665 86.3783 58.4665C88.0905 58.4665 90.3219 58.1344 92.9078 56.9894C93.0714 56.9166 93.1469 56.7221 93.0753 56.5555C93.0048 56.388 92.8138 56.3112 92.6493 56.384C90.1466 57.4921 88.0082 57.8073 86.3783 57.8073C85.2763 57.8073 84.4055 57.6626 83.8149 57.52C83.5191 57.4482 83.2938 57.3774 83.1439 57.3255L82.9764 57.2637L82.9274 57.2427C82.7638 57.1699 82.5728 57.2447 82.5003 57.4123C82.4288 57.5788 82.5023 57.7733 82.6669 57.8461Z" fill="black"/>
<path d="M102.584 36.9943C102.584 36.9943 77.6389 40.1012 77.4557 25.0674C77.4557 25.0674 98.7408 16.8997 102.584 36.9943Z" fill="#A74B22"/>
<path d="M70.6881 39.7493C70.6881 39.7493 79.1689 35.248 78.4078 26.0739C78.4078 26.0739 69.4843 27.9061 70.6881 39.7493Z" fill="#A74B22"/>
<path d="M163.519 133.34L154.789 174.666L149.024 174.363C149.024 174.363 150.871 148.797 153.01 131.7C153.35 128.989 156.783 126.775 159.41 127.338C161.872 127.865 164.034 130.832 163.519 133.34Z" fill="#E8B499"/>
<path d="M154.122 171.938C154.122 171.938 156.963 176.466 155.209 182.234L156.505 187.869C156.706 188.745 156.288 189.661 155.524 190.017C154.698 190.402 153.754 190.002 153.392 189.112L152.099 185.927L151.963 187.146C151.746 189.08 152.128 191.027 153.046 192.671L155.662 197.349C155.959 197.882 155.967 198.556 155.681 199.107C155.129 200.174 153.784 200.312 153.093 199.374L148.95 193.737C147.344 191.552 146.685 188.695 147.142 185.897L149.596 170.858L154.122 171.938Z" fill="#E8B499"/>
<path d="M153.01 131.7L158.13 96.3776L170.027 100.32L163.397 133.831L153.01 131.7Z" fill="#E8B499"/>
<path d="M170.95 81.7126C170.95 81.7126 162.914 82.6873 158.786 93.5267C154.635 104.425 149.563 115.795 149.563 115.795L167.546 126L170.95 81.7126Z" fill="#4E8985"/>
<path d="M224.05 139.285L263.331 117.5L260.953 108.998C260.953 108.998 233.576 120.871 218.721 129.13C216.364 130.441 215.591 135.29 217.064 137.576C218.444 139.717 221.945 140.686 224.05 139.285Z" fill="#E8B499"/>
<path d="M227.293 131.862L219.16 96.3775L207.264 100.32L216.613 136.634L227.293 131.862Z" fill="#E8B499"/>
<path d="M207.873 81.4343C207.873 81.4343 216.565 82.4828 220.984 93.5267C225.316 104.352 229.621 114.343 229.621 114.343L212.292 125.276L207.873 81.4343Z" fill="#4E8985"/>
<path d="M211.907 83.0882C208.823 81.1438 203.812 80.6577 203.812 80.6577L189.882 82.0892L175.951 80.6577C175.951 80.6577 170.94 81.1438 167.856 83.0882L167.743 115.76L161.518 160.672L218.621 160.987L212.069 116.347L211.907 83.0882Z" fill="#4E8985"/>
<path d="M170.95 81.7126L187.367 77.3199H193.027L207.873 81.4343C200.281 88.6803 181.437 94.6214 171.798 82.0502L170.95 81.7126Z" fill="#E8B499"/>
<path d="M166.927 125.314L167.924 114.853L167.925 114.787L166.745 99.0775C166.729 98.8641 166.546 98.705 166.337 98.7212C166.128 98.7375 165.972 98.9233 165.988 99.1359L167.166 114.812L166.171 125.238C166.151 125.451 166.303 125.64 166.512 125.661C166.721 125.681 166.907 125.526 166.927 125.314Z" fill="black"/>
<path d="M213.463 124.432L212.546 114.817L214.069 98.9955C214.09 98.7829 213.937 98.5938 213.729 98.5727C213.52 98.5524 213.334 98.7074 213.314 98.92L211.787 114.779V114.853L212.707 124.507C212.728 124.72 212.913 124.876 213.121 124.854C213.33 124.834 213.483 124.645 213.463 124.432Z" fill="black"/>
<path d="M214.269 66.6622C214.11 65.3184 214.215 63.9404 214.547 62.6444C216.234 56.0606 214.304 50.453 210.897 46.2631C207.814 42.4725 207.046 36.865 207.046 36.865C204.782 29.2692 197.112 24 190.131 24C183.15 24 175.503 28.9657 173.239 36.5606C173.239 36.5606 172.218 42.574 169.365 46.2631C166.062 50.5333 164.028 56.0606 165.714 62.6444C166.047 63.9404 166.151 65.3184 165.993 66.6622C165.876 67.6555 165.609 68.6853 165.052 69.3995H215.209C214.652 68.6853 214.386 67.6555 214.269 66.6622Z" fill="#DA4412"/>
<path d="M181.435 52.2116C181.512 54.9716 179.376 57.273 176.666 57.3509C173.955 57.4288 171.696 55.254 171.619 52.494C171.542 49.734 173.678 47.4334 176.388 47.3547C179.099 47.2768 181.359 49.4508 181.435 52.2116Z" fill="#E8B499"/>
<path d="M173.859 51.9008H173.861C173.89 51.8878 174.091 51.8042 174.401 51.8042C174.717 51.805 175.146 51.8878 175.649 52.2319C176.152 52.5776 176.731 53.1919 177.312 54.2696C177.384 54.4051 177.552 54.4546 177.684 54.3808C177.817 54.3061 177.866 54.1365 177.793 54.001C177.181 52.8657 176.549 52.1759 175.956 51.7685C175.365 51.3611 174.814 51.2451 174.401 51.2459C173.936 51.2459 173.645 51.3863 173.62 51.3984C173.483 51.4666 173.427 51.6338 173.493 51.7726C173.559 51.9113 173.723 51.9689 173.859 51.9008Z" fill="#C47268"/>
<path d="M199.362 52.3527C199.362 55.1143 201.561 57.3525 204.273 57.3525C206.985 57.3525 209.183 55.1143 209.183 52.3527C209.183 49.5912 206.985 47.353 204.273 47.353C201.561 47.353 199.362 49.5912 199.362 52.3527Z" fill="#E8B499"/>
<path d="M207.153 51.3157C207.128 51.3043 206.86 51.1842 206.433 51.1842C206.023 51.1834 205.467 51.2995 204.874 51.7198C204.279 52.1386 203.649 52.8535 203.053 54.0375C202.984 54.1747 203.037 54.3426 203.172 54.4132C203.307 54.4838 203.472 54.4295 203.542 54.2923C204.107 53.1684 204.683 52.533 205.186 52.1792C205.689 51.8253 206.121 51.7442 206.433 51.7434C206.595 51.7434 206.725 51.7661 206.811 51.788L206.906 51.8172L206.927 51.8245C207.065 51.8886 207.228 51.8261 207.29 51.6858C207.353 51.5445 207.292 51.379 207.153 51.3157Z" fill="#C47268"/>
<path d="M205.684 42.8321C205.684 51.5048 198.779 58.535 190.262 58.535C181.746 58.535 174.841 51.5048 174.841 42.8321C174.841 34.1595 181.746 27.1285 190.262 27.1285C198.779 27.1285 205.684 34.1595 205.684 42.8321Z" fill="#DA4412"/>
<path d="M195.143 62.3327C195.143 62.3327 193.018 64.3185 191.08 64.8062C189.142 65.294 187.257 63.8008 187.232 63.7821L184.967 62.0536L184.058 78.5087L184.309 78.783C187.6 82.3812 192.339 82.4315 195.657 78.9031L196.143 78.387L195.143 62.3327Z" fill="#E8B499"/>
<path d="M183.437 59.8796C183.437 59.8796 186.162 69.4953 191.027 69.4003C195.025 69.3232 196.135 60.3576 196.135 60.3576L183.437 59.8796Z" fill="#1E0B02"/>
<path d="M203.655 43.0041C203.681 48.4137 202.912 53.0848 202.137 56.4023C201.378 59.6491 199.21 61.9271 196.137 63.7676L195.577 64.1027C192.327 66.0504 188.115 66.1169 184.795 64.2732C181.447 62.4148 179.098 59.9527 178.361 56.4761C177.021 50.1528 176.843 43.1429 176.843 43.1429C176.843 43.1429 175.724 28.5121 190.185 28.702C204.645 28.8935 203.655 43.0041 203.655 43.0041Z" fill="#E8B499"/>
<path d="M188.812 51.0171V53.1595C188.812 53.2325 188.841 53.3048 188.893 53.3567C188.944 53.4086 189.014 53.4387 189.086 53.4387H190.505C190.656 53.4387 190.78 53.3137 190.78 53.1595C190.78 53.0053 190.656 52.8795 190.505 52.8795H189.361V51.0171C189.361 50.8629 189.238 50.7379 189.086 50.7379C188.935 50.7379 188.812 50.8629 188.812 51.0171Z" fill="#C47268"/>
<path d="M179.265 42.8832L186.911 42.1812C186.911 42.1812 186.226 40.1646 183.135 40.4909C179.971 40.826 179.265 42.8832 179.265 42.8832Z" fill="black"/>
<path d="M200.281 42.8832L192.636 42.1812C192.636 42.1812 193.321 40.1646 196.412 40.4909C199.575 40.826 200.281 42.8832 200.281 42.8832Z" fill="black"/>
<path d="M185.621 55.1354H193.97C193.97 55.1354 193.65 57.3525 189.647 57.3525C186.361 57.3525 185.621 55.1354 185.621 55.1354Z" fill="white"/>
<path d="M186.252 47.8327C186.219 47.8132 185.299 47.0228 184.03 47.0131C183.398 47.0098 182.679 47.2346 182.036 47.8489C181.883 47.995 181.874 48.2409 182.017 48.3975C182.161 48.5541 182.402 48.563 182.556 48.417C183.07 47.9333 183.563 47.7921 184.03 47.7889C184.497 47.7881 184.939 47.9479 185.262 48.1135C185.423 48.1962 185.553 48.279 185.642 48.3399L185.741 48.4121L185.765 48.43L185.769 48.4332C185.932 48.5687 186.172 48.5444 186.305 48.3788C186.439 48.2125 186.414 47.9682 186.252 47.8327Z" fill="#1E0B02"/>
<path d="M197.463 47.8684C197.446 47.8497 197.251 47.6387 196.903 47.4253C196.555 47.2119 196.049 46.9944 195.424 46.9936C194.798 46.9919 194.071 47.22 193.326 47.8302C193.163 47.9641 193.136 48.2084 193.268 48.3756C193.399 48.5428 193.639 48.5695 193.803 48.4356C194.439 47.9195 194.976 47.7718 195.424 47.7702C195.871 47.7694 196.245 47.9276 196.509 48.0899C196.642 48.1711 196.745 48.2522 196.813 48.3115L196.889 48.3796L196.905 48.3967L196.907 48.3991L197.014 48.2952L196.906 48.3975L196.907 48.3991L197.014 48.2952L196.906 48.3975C197.05 48.5541 197.29 48.563 197.444 48.4162C197.599 48.2701 197.607 48.025 197.463 47.8684Z" fill="#1E0B02"/>
<path d="M177.87 53.45H187.908V42.7411H177.87V53.45Z" fill="#EDC5B1"/>
<path d="M182.296 48.5209C182.194 48.5209 182.092 48.4795 182.017 48.3975C181.874 48.2409 181.883 47.995 182.036 47.8489C182.676 47.2387 183.388 47.0123 184.018 47.0123C184.022 47.0123 184.026 47.0123 184.03 47.0131C184.736 47.0188 185.333 47.2655 185.73 47.4862L186.339 48.3285C186.33 48.3456 186.318 48.3626 186.305 48.3789C186.23 48.4722 186.121 48.5209 186.01 48.5209C185.925 48.5209 185.84 48.4925 185.769 48.4332L185.765 48.43L185.741 48.4121L185.642 48.3399C185.553 48.279 185.423 48.1963 185.262 48.1135C184.94 47.9479 184.499 47.7889 184.034 47.7889C184.034 47.7889 184.032 47.7889 184.03 47.7889C183.563 47.7921 183.07 47.9333 182.556 48.417C182.483 48.4868 182.389 48.5209 182.296 48.5209Z" fill="#52433D"/>
<path d="M197.726 53.45C197.59 53.45 197.451 53.441 197.31 53.4216L193.636 48.5143C193.696 48.503 193.753 48.477 193.804 48.4356C194.439 47.9195 194.976 47.7718 195.424 47.7702C195.871 47.7694 196.245 47.9276 196.509 48.0899C196.642 48.1711 196.745 48.2522 196.813 48.3115L196.889 48.3796L196.905 48.3967L196.907 48.3991C196.982 48.4803 197.083 48.5208 197.184 48.5208C197.278 48.5208 197.371 48.4867 197.444 48.4161C197.599 48.2701 197.607 48.025 197.463 47.8684C197.446 47.8497 197.251 47.6387 196.903 47.4253C196.556 47.2119 196.049 46.9944 195.424 46.9935C195.422 46.9935 195.418 46.9935 195.416 46.9935C194.793 46.9935 194.068 47.2224 193.326 47.8302C193.282 47.8667 193.247 47.9122 193.223 47.9617L191.653 45.8647C191.653 45.8647 193.09 42.7412 195.826 42.7412C195.912 42.7412 195.999 42.7444 196.088 42.7509L201.692 50.4977C201.692 50.4977 200.175 53.45 197.726 53.45Z" fill="#EDC5B1"/>
<path d="M197.184 48.5209C197.083 48.5209 196.982 48.4803 196.907 48.3991L196.905 48.3967L196.889 48.3797L196.813 48.3115C196.745 48.2523 196.642 48.1711 196.509 48.09C196.245 47.9277 195.871 47.7694 195.424 47.7702C194.976 47.7718 194.439 47.9195 193.804 48.4357C193.753 48.477 193.696 48.503 193.636 48.5144L193.223 47.9617C193.247 47.9122 193.282 47.8668 193.326 47.8303C194.068 47.2225 194.793 46.9936 195.416 46.9936C195.418 46.9936 195.421 46.9936 195.424 46.9936C196.049 46.9944 196.556 47.2119 196.903 47.4253C197.251 47.6388 197.446 47.8497 197.463 47.8684C197.607 48.025 197.599 48.2701 197.444 48.4162C197.371 48.4868 197.278 48.5209 197.184 48.5209Z" fill="#52433D"/>
<path d="M188.353 48.1329H188.157C188.157 49.6188 187.566 50.9627 186.609 51.9365C185.653 52.9104 184.333 53.5125 182.874 53.5125C181.415 53.5125 180.095 52.9104 179.139 51.9365C178.182 50.9627 177.591 49.6188 177.591 48.1329C177.591 46.6463 178.182 45.3032 179.139 44.3286C180.095 43.3548 181.415 42.7534 182.874 42.7534C184.333 42.7534 185.653 43.3548 186.609 44.3286C187.566 45.3032 188.157 46.6463 188.157 48.1329H188.353H188.549C188.549 44.9404 186.008 42.3533 182.874 42.3533C179.739 42.3533 177.198 44.9404 177.198 48.1329C177.198 51.3246 179.739 53.9126 182.874 53.9126C186.008 53.9126 188.549 51.3246 188.549 48.1329H188.353Z" fill="white"/>
<path d="M202.152 48.1329H201.956C201.956 49.6188 201.365 50.9627 200.408 51.9365C199.452 52.9104 198.132 53.5125 196.673 53.5125C195.213 53.5125 193.894 52.9104 192.937 51.9365C191.981 50.9627 191.39 49.6188 191.39 48.1329C191.39 46.6463 191.981 45.3032 192.937 44.3286C193.894 43.3548 195.213 42.7534 196.673 42.7534C198.132 42.7534 199.452 43.3548 200.408 44.3286C201.365 45.3032 201.956 46.6463 201.956 48.1329H202.152H202.348C202.348 44.9404 199.807 42.3533 196.673 42.3533C193.538 42.3533 190.997 44.9404 190.997 48.1329C190.997 51.3246 193.538 53.9126 196.673 53.9126C199.807 53.9126 202.348 51.3246 202.348 48.1329H202.152Z" fill="white"/>
<path d="M188.421 48.3203C188.421 48.3203 188.458 48.3066 188.533 48.283C188.756 48.2132 189.289 48.072 189.891 48.072C190.291 48.072 190.721 48.1345 191.112 48.3147L191.274 47.9503C190.816 47.7401 190.331 47.6728 189.891 47.6719C189.01 47.6728 188.298 47.9414 188.285 47.9454L188.421 48.3203Z" fill="white"/>
<path d="M175.451 39.6793C175.451 39.6793 188.34 37.1806 191.001 27.384C191.001 27.384 177.289 22.4305 175.451 39.6793Z" fill="#DA4412"/>
<path d="M203.655 39.6793C203.655 39.6793 190.765 37.1806 188.104 27.384C188.104 27.384 201.816 22.4305 203.655 39.6793Z" fill="#DA4412"/>
<path d="M384.822 5.56225C384.822 5.56225 392.003 -4.33101 404.727 2.27094C418.676 9.50906 411.137 25.1113 411.137 25.1113L381.161 19.3287L384.822 5.56225Z" fill="#A74B22"/>
<path d="M385.475 32.4229C385.562 35.5549 383.14 38.165 380.064 38.2533C376.989 38.3417 374.425 35.8753 374.338 32.7433C374.252 29.6122 376.674 27.0021 379.75 26.9138C382.825 26.8254 385.388 29.2918 385.475 32.4229Z" fill="#E8B499"/>
<path d="M376.88 32.0712L376.882 32.0703C376.915 32.0556 377.143 31.9607 377.494 31.9617C377.853 31.9626 378.34 32.0556 378.912 32.4468C379.482 32.8381 380.139 33.536 380.798 34.7586C380.88 34.9124 381.069 34.9685 381.22 34.8838C381.371 34.8 381.426 34.6067 381.343 34.4539C380.65 33.1659 379.932 32.3824 379.26 31.9203C378.588 31.459 377.963 31.3265 377.494 31.3274C376.967 31.3274 376.637 31.4866 376.608 31.5013C376.453 31.5778 376.389 31.7674 376.464 31.9248C376.539 32.0823 376.726 32.1476 376.88 32.0712Z" fill="#C47268"/>
<path d="M405.814 32.5831C405.814 35.716 408.307 38.2552 411.384 38.2552C414.46 38.2552 416.954 35.716 416.954 32.5831C416.954 29.451 414.46 26.911 411.384 26.911C408.307 26.911 405.814 29.451 405.814 32.5831Z" fill="#E8B499"/>
<path d="M414.652 31.4066C414.623 31.3937 414.319 31.2574 413.834 31.2574C413.37 31.2565 412.739 31.3881 412.065 31.865C411.391 32.341 410.675 33.1521 410 34.4944C409.921 34.65 409.982 34.8415 410.135 34.9206C410.288 35.0007 410.476 34.9391 410.554 34.7835C411.195 33.5093 411.85 32.7875 412.419 32.3861C412.991 31.9847 413.48 31.8926 413.834 31.8908C414.018 31.8908 414.165 31.9175 414.263 31.9424L414.371 31.9746L414.394 31.9838L414.395 31.9847C414.551 32.0565 414.736 31.9856 414.806 31.8264C414.878 31.6662 414.808 31.4784 414.652 31.4066Z" fill="#C47268"/>
<path d="M402.791 45.6535C402.791 45.6535 399.65 47.91 396.789 48.467C393.927 49.024 391.144 47.3328 391.109 47.3125L387.767 45.3552L386.398 64.0241L386.768 64.3352C391.621 68.4119 398.617 68.4597 403.524 64.4513L404.241 63.8648L402.791 45.6535Z" fill="#E8B499"/>
<path d="M386.398 43.3915C386.398 43.3915 389.519 53.7948 396.703 53.6797C402.606 53.5839 403.559 43.3915 403.559 43.3915H386.398Z" fill="#1E0B02"/>
<path d="M410.686 22.7093C410.719 29.1206 409.847 34.6583 408.968 38.5895C408.108 42.4387 404.783 45.1381 401.298 47.3181L400.664 47.7158C396.976 50.023 393.927 50.1013 390.161 47.9156C386.362 45.7107 382.831 42.7923 381.995 38.6714C380.472 31.1756 380.27 22.8658 380.27 22.8658C380.27 22.8658 378.131 5.52269 394.536 5.75285C410.942 5.98301 410.686 22.7093 410.686 22.7093Z" fill="#E8B499"/>
<path d="M389.729 27.7958C389.729 28.5424 389.135 29.1482 388.402 29.1482C387.667 29.1482 387.073 28.5424 387.073 27.7958C387.073 27.0492 387.667 26.4443 388.402 26.4443C389.135 26.4443 389.729 27.0492 389.729 27.7958Z" fill="#1E0B02"/>
<path d="M402.755 27.7958C402.755 28.5424 402.16 29.1482 401.427 29.1482C400.693 29.1482 400.099 28.5424 400.099 27.7958C400.099 27.0492 400.693 26.4443 401.427 26.4443C402.16 26.4443 402.755 27.0492 402.755 27.7958Z" fill="#1E0B02"/>
<path d="M393.399 31.3319V33.4982C393.399 33.5819 393.431 33.663 393.49 33.7228C393.548 33.7818 393.628 33.8158 393.71 33.8158H395.432C395.604 33.8158 395.744 33.6731 395.744 33.4982C395.744 33.3232 395.604 33.1815 395.432 33.1815H394.021V31.3319C394.021 31.157 393.882 31.0152 393.71 31.0152C393.538 31.0152 393.399 31.157 393.399 31.3319Z" fill="#C47268"/>
<path d="M383.455 22.0832L392.129 21.2868C392.129 21.2868 391.353 18.9981 387.846 19.3691C384.257 19.7493 383.455 22.0832 383.455 22.0832Z" fill="black"/>
<path d="M405.814 22.0832L397.139 21.2868C397.139 21.2868 397.916 18.9981 401.422 19.3691C405.011 19.7493 405.814 22.0832 405.814 22.0832Z" fill="black"/>
<path d="M390.741 36.5862H399.298C399.298 36.5862 398.895 39.2551 394.892 39.2551C390.89 39.2551 390.741 36.5862 390.741 36.5862Z" fill="white"/>
<path d="M380.828 31.0723C380.828 31.0723 381.47 9.82936 381.204 9.22449C381.204 9.22449 373.806 16.1846 380.828 31.0723Z" fill="#A74B22"/>
<path d="M410.068 30.9223L408.957 7.85647C408.957 7.85647 416.071 15.0522 410.068 30.9223Z" fill="#A74B22"/>
<path d="M387.693 7.34271C387.693 7.34271 382.603 8.7467 382.776 13.8351C382.95 18.9235 379.57 23.9244 379.57 23.9244L378.026 18.8397C378.026 18.8397 376.835 9.36353 387.693 7.34271Z" fill="#A74B22"/>
<path d="M386.408 7.7634C386.408 7.7634 390.219 5.56213 394.002 10.4066C397.233 14.5421 405.75 18.802 410.796 14.7483C410.796 14.7483 407.582 3.04049 395.048 3.27894C382.513 3.51647 386.408 7.7634 386.408 7.7634Z" fill="#A74B22"/>
<path d="M368.655 71.1121C343.389 83.9947 322.574 107.975 322.574 107.975L336.136 124.61L374.336 99.8988L368.655 71.1121Z" fill="#EEC86A"/>
<path d="M444.659 187.017C444.659 187.017 441.644 192.547 444.115 199.192L442.994 205.909C442.819 206.952 443.377 207.998 444.299 208.359C445.298 208.751 446.378 208.211 446.739 207.138L448.032 203.302L448.28 204.724C448.671 206.98 448.361 209.296 447.4 211.295L444.661 216.985C444.349 217.632 444.388 218.424 444.763 219.051C445.489 220.263 447.078 220.326 447.823 219.172L452.289 212.243C454.019 209.559 454.59 206.153 453.854 202.9L449.897 185.415L444.659 187.017Z" fill="#E8B499"/>
<path d="M419.852 70.3434C419.852 70.3434 428.748 72.6229 433.487 86.2282C442.981 113.484 452.825 186.511 452.825 186.511L435.831 189.773L412.003 96.2172L419.852 70.3434Z" fill="#EEC86A"/>
<path d="M414.301 67.8291L421.922 71.2815C425.008 72.6791 427.001 75.7918 427.012 79.2322L427.283 163.426H363.396V79.166C363.396 75.6472 365.469 72.4729 368.655 71.1122L376.433 67.7905L414.301 67.8291Z" fill="#EEC86A"/>
<path d="M395.821 59.6722L414.301 67.8291C414.301 67.8291 395.314 85.3011 376.433 67.7905L395.821 59.6722Z" fill="#E8B499"/>
<path d="M375.763 68.3659C375.808 68.4183 377.514 70.4649 380.804 72.5143C384.092 74.5618 388.978 76.6084 395.319 76.6075C401.66 76.6084 406.568 74.5729 409.879 72.5364C413.191 70.499 414.921 68.4625 414.965 68.4119L413.637 67.2473L413.626 67.2602C413.469 67.4406 411.772 69.3427 408.678 71.1876C405.581 73.0326 401.1 74.8223 395.319 74.8233C389.354 74.8223 384.797 72.9065 381.718 70.9916C380.18 70.0341 379.015 69.0775 378.24 68.3659C377.853 68.0105 377.563 67.7159 377.373 67.5134C377.277 67.4121 377.207 67.3347 377.162 67.2832L377.113 67.227L377.103 67.2151L377.102 67.2141L375.763 68.3659Z" fill="white"/>
<path d="M363.826 106.976V97.5843C363.826 97.3422 363.633 97.1452 363.396 97.1452C363.158 97.1452 362.964 97.3422 362.964 97.5843V106.976C362.964 107.218 363.158 107.415 363.396 107.415C363.633 107.415 363.826 107.218 363.826 106.976Z" fill="black"/>
<path d="M294.576 29.4989C294.576 29.4989 302.785 25.7749 305.695 32.8169C308.497 39.5975 297.37 46.0595 297.37 46.0595L294.576 29.4989Z" fill="#1E0B02"/>
<path d="M279.222 57.6099C279.309 60.7419 276.887 63.352 273.812 63.4404C270.736 63.5287 268.173 61.0623 268.086 57.9303C267.999 54.7992 270.421 52.1891 273.497 52.1008C276.572 52.0124 279.136 54.4788 279.222 57.6099Z" fill="#C67D69"/>
<path d="M270.64 57.2831C270.67 57.2693 270.895 57.1754 271.241 57.1754C271.596 57.1772 272.077 57.2684 272.644 57.656C273.21 58.0445 273.864 58.7386 274.522 59.9585C274.611 60.1251 274.816 60.1868 274.98 60.0948C275.145 60.0036 275.204 59.7946 275.114 59.6271C274.419 58.3363 273.699 57.5501 273.022 57.0852C272.346 56.6202 271.716 56.4858 271.241 56.4868C270.709 56.4877 270.375 56.6479 270.344 56.6635C270.175 56.7473 270.106 56.9526 270.188 57.1238C270.27 57.2951 270.472 57.366 270.64 57.2831Z" fill="#A8523F"/>
<path d="M299.56 57.7711C299.56 60.9031 302.055 63.4423 305.131 63.4423C308.209 63.4423 310.701 60.9031 310.701 57.7711C310.701 54.6381 308.209 52.0981 305.131 52.0981C302.055 52.0981 299.56 54.6381 299.56 57.7711Z" fill="#C67D69"/>
<path d="M308.41 56.5687C308.379 56.5549 308.072 56.4177 307.582 56.4168C307.113 56.4159 306.475 56.5494 305.797 57.029C305.118 57.5087 304.4 58.3234 303.724 59.6685C303.639 59.8379 303.704 60.046 303.87 60.1325C304.037 60.2191 304.24 60.1518 304.326 59.9824C304.965 58.711 305.616 57.9939 306.182 57.5952C306.749 57.1975 307.233 57.1073 307.582 57.1054C307.764 57.1054 307.908 57.1312 308.004 57.1561L308.11 57.1883L308.132 57.1966L308.134 57.1892L308.132 57.1966L308.134 57.1892L308.132 57.1966C308.302 57.2748 308.502 57.1975 308.579 57.0244C308.656 56.8513 308.58 56.647 308.41 56.5687Z" fill="#A8523F"/>
<path d="M296.539 70.8405C296.539 70.8405 293.399 73.097 290.537 73.6539C287.674 74.2109 284.892 72.5197 284.857 72.4995L281.514 70.5422L280.146 89.211L280.516 89.5222C285.369 93.5988 292.364 93.6467 297.27 89.6382L297.988 89.0517L296.539 70.8405Z" fill="#C67D69"/>
<path d="M280.146 68.5785C280.146 68.5785 283.268 78.9818 290.45 78.8667C296.354 78.771 297.306 68.5785 297.306 68.5785H280.146Z" fill="#1E0B02"/>
<path d="M304.434 47.8963C304.466 54.3076 303.594 59.8453 302.716 63.7765C301.855 67.6257 299.396 70.325 295.911 72.506L295.275 72.9028C291.588 75.21 286.81 75.2882 283.044 73.1026C279.245 70.8977 276.579 67.9792 275.742 63.8584C274.221 56.3625 274.017 48.0528 274.017 48.0528C274.017 48.0528 271.879 30.7106 288.285 30.9398C304.689 31.17 304.434 47.8963 304.434 47.8963Z" fill="#C67D69"/>
<path d="M283.476 52.9828C283.476 53.7295 282.882 54.3353 282.149 54.3353C281.416 54.3353 280.822 53.7295 280.822 52.9828C280.822 52.2362 281.416 51.6304 282.149 51.6304C282.882 51.6304 283.476 52.2362 283.476 52.9828Z" fill="#1E0B02"/>
<path d="M296.502 52.9828C296.502 53.7295 295.907 54.3353 295.175 54.3353C294.442 54.3353 293.847 53.7295 293.847 52.9828C293.847 52.2362 294.442 51.6304 295.175 51.6304C295.907 51.6304 296.502 52.2362 296.502 52.9828Z" fill="#1E0B02"/>
<path d="M287.119 54.9566V58.6852C287.119 58.7764 287.155 58.8647 287.218 58.9292C287.281 58.9927 287.368 59.0295 287.457 59.0295H289.823C290.01 59.0295 290.161 58.8758 290.161 58.6852C290.161 58.4956 290.01 58.3409 289.823 58.3409H287.796V54.9566C287.796 54.7669 287.645 54.6123 287.457 54.6123C287.27 54.6123 287.119 54.7669 287.119 54.9566Z" fill="#A8523F"/>
<path d="M277.203 47.2693L285.877 46.4738C285.877 46.4738 285.1 44.1851 281.593 44.5561C278.005 44.9364 277.203 47.2693 277.203 47.2693Z" fill="black"/>
<path d="M299.56 47.2693L290.887 46.4738C290.887 46.4738 291.664 44.1851 295.171 44.5561C298.759 44.9364 299.56 47.2693 299.56 47.2693Z" fill="black"/>
<path d="M284.489 61.7731H293.046C293.046 61.7731 292.643 64.4421 288.64 64.4421C284.637 64.4421 284.489 61.7731 284.489 61.7731Z" fill="white"/>
<path d="M274.575 56.2593C274.575 56.2593 277.004 37.5021 275.816 34.4115C275.816 34.4115 267.554 41.3706 274.575 56.2593Z" fill="#1E0B02"/>
<path d="M303.815 56.1092C303.815 56.1092 301.082 38.1971 301.84 33.0433C301.84 33.0433 309.818 40.2391 303.815 56.1092Z" fill="#1E0B02"/>
<path d="M301.269 31.7665L293.705 30.601L293.039 29.2688L289.047 29.8838L285.054 29.2688L284.389 30.601L276.825 31.7665L275.816 35.8864L276.065 40.6369C276.065 40.6369 277.262 35.2493 281.429 36.3219C282.412 36.5751 283.59 36.9939 284.965 37.2765C286.25 37.5619 287.475 37.6909 288.63 37.7111C288.767 37.7148 288.908 37.7111 289.047 37.713C289.186 37.7111 289.327 37.7148 289.464 37.7111C290.619 37.6909 291.843 37.5619 293.128 37.2765C294.504 36.9939 295.707 36.6616 296.663 36.3219C300.528 34.9529 301.951 40.392 301.951 40.392L302.277 35.8864L301.269 31.7665Z" fill="#1E0B02"/>
<path d="M301.118 36.4544C301.118 36.4544 296.198 40.9241 289.896 37.4892C289.896 37.4892 273.861 47.5473 269.336 36.598C265.563 27.4708 281.225 15.0826 297.384 29.0414L301.118 36.4544Z" fill="#1E0B02"/>
<path d="M316.796 96.6048L297.988 89.0518L280.147 89.2111L256.622 100.419C254.778 101.543 255.125 103.818 255.794 105.897L261.114 169.919L320.114 169.093L323.959 104.044C324.461 101.904 318.74 97.565 316.796 96.6048Z" fill="#E180A0"/>
<path d="M340.47 73.7405L348.145 70.9298L361.738 125.471C363.646 131.31 359.723 137.44 353.706 138.021C348.703 138.503 344.211 134.894 343.511 129.827L340.47 73.7405Z" fill="#C67D69"/>
<path d="M340.47 73.7405L336.81 69.6262C334.901 67.4792 333.513 64.9051 332.76 62.1109L331.432 57.1928C331.118 56.0236 331.91 54.847 333.094 54.7246C334.094 54.6215 335.055 55.1472 335.523 56.0531L337.995 60.846L338.685 39.6582C338.695 38.745 339.492 38.048 340.381 38.1741L340.978 38.2598C341.68 38.3601 342.216 38.9503 342.258 39.6711L342.237 52.2306L344.221 37.8068C344.291 36.8991 345.126 36.2565 346.002 36.4369L346.437 36.5262C347.173 36.6781 347.685 37.3658 347.626 38.13L345.999 53.2L349.478 41.4038C349.73 40.4693 350.767 40.0127 351.61 40.4638L351.779 40.555C352.357 40.8652 352.669 41.5207 352.55 42.1744L350.233 54.882L352.607 47.3944C352.945 46.3292 354.259 45.9904 355.054 46.7619C355.432 47.1293 355.594 47.6715 355.48 48.1908L349.316 76.2806L340.47 73.7405Z" fill="#C67D69"/>
<path d="M314.17 95.697C328.886 100.243 339.067 112.488 339.067 112.488L327.997 134.853L302.594 122.85L314.17 95.697Z" fill="#E180A0"/>
<path d="M245.06 121.164L236.113 153.978C235.096 159.196 241.154 165.113 246.071 166.44C250.926 167.751 249.899 163.876 251.171 158.798L263.365 127.756L245.06 121.164Z" fill="#C67D69"/>
<path d="M236.979 157.78C238.565 164.479 259.356 179.267 259.356 179.267L271.274 179.374L249.648 148.948L236.979 157.78Z" fill="#C67D69"/>
<path d="M274.969 182.589C274.969 182.589 278.008 184.143 280.995 183.525C282.643 183.184 282.937 180.903 281.443 180.12C277.549 178.08 269.352 173.312 266.12 172.123L260.495 170.526L255.196 175.889L259.356 179.267C259.356 179.267 260.356 184.629 262.389 186.453C262.389 186.453 271.192 187.847 274.969 182.589Z" fill="#C67D69"/>
<path d="M256.621 100.419C256.621 100.419 241.789 105.464 238.733 132.281L268.084 141.18L276.25 115.25L256.621 100.419Z" fill="#E180A0"/>
<path d="M267.981 95.0231C267.981 95.0231 264.989 96.6527 267.336 101.385C268.669 104.073 267.791 107.353 265.304 108.982L260.13 112.368C257.243 114.258 253.351 113.199 251.841 110.06C250.825 107.947 250.181 105.538 250.953 103.474C252.811 98.4995 263.728 92.7897 267.981 95.0231Z" fill="#E8B499"/>
<path d="M554.705 79.7487L560.724 81.6756L547.985 122.069C546.477 126.575 541.243 128.482 537.27 125.972C533.966 123.884 532.859 119.522 534.757 116.066L554.705 79.7487Z" fill="#DE9A8C"/>
<path d="M554.952 78.4046L555.432 76.8079C556.076 74.6624 557.207 72.7009 558.732 71.0823L561.417 68.2325C562.056 67.5554 563.138 67.6246 563.689 68.3778C564.152 69.0144 564.19 69.874 563.785 70.5495L561.636 74.1262L574.087 67.1931C574.688 66.8376 575.46 67.1002 575.729 67.7529L575.911 68.1903C576.124 68.7054 575.951 69.3023 575.498 69.6173L567.286 74.5872L577.493 70.2075C578.114 69.8934 578.864 70.2041 579.095 70.8695L579.209 71.1988C579.403 71.7586 579.155 72.3767 578.634 72.641L569.825 77.03L577.231 75.1943C577.941 74.9942 578.651 75.5143 578.689 76.2641L578.698 76.4153C578.724 76.9295 578.42 77.4015 577.946 77.5796L570.386 80.0452L574.561 79.6897C575.39 79.4963 576.132 80.2512 575.944 81.0956C575.853 81.4975 575.564 81.8217 575.179 81.9509L556.049 87.9163L554.869 83.4581C554.43 81.7989 554.458 80.0477 554.952 78.4046Z" fill="#DE9A8C"/>
<path d="M511.067 81.8394C511.067 81.8394 521.385 84.5033 537.05 109.002L544.325 87.8369L560.955 95.421L549.705 126.16C546.765 134.193 536.739 136.649 530.583 130.8C525.643 126.104 509.832 108.298 506.656 102.27L511.067 81.8394Z" fill="#262722"/>
<path d="M459.976 137.712C459.976 137.712 467.861 139.978 463.671 148.667C459.895 156.5 453.344 158.139 447.902 156.821C446.977 156.598 446.513 155.533 446.921 154.658C447.178 154.107 447.725 153.761 448.324 153.774C450.293 153.816 453.802 153.489 454.778 150.796C456.047 147.293 454.248 143.446 456.243 139.831L459.976 137.712Z" fill="#DE9A8C"/>
<path d="M459.976 137.712L455.234 129.719L448.251 133.715L456.772 143.179L459.976 137.712Z" fill="#DE9A8C"/>
<path d="M459.914 85.3916C459.914 85.3916 446.531 92.1144 429.939 109.323C428.25 111.074 427.576 113.633 428.27 115.982C429.543 120.289 433.861 127.477 447.374 136.867L459.113 130.783L448.852 116.869L468.472 108.59L459.914 85.3916Z" fill="#262722"/>
<path d="M512.878 154.519L466.613 155.07L471.943 82.4854H507.657L512.878 154.519Z" fill="white"/>
<path d="M466.076 82.4854L459.914 85.3917C459.914 85.3917 469.031 119.162 455.835 171.199L467.238 173.887C467.238 173.887 479.572 136.201 478.453 85.3917L466.076 82.4854Z" fill="#262722"/>
<path d="M512.371 82.5985L515.241 83.952C517.128 84.8428 518.167 86.9183 517.772 88.9971C515.888 98.877 511.901 129.079 522.61 171.312L511.207 174C511.207 174 498.873 136.314 499.994 85.5048L512.371 82.5985Z" fill="#262722"/>
<path d="M495.217 69.4374C495.217 69.4374 492.781 71.5247 490.56 72.0381C488.339 72.5514 486.178 70.9834 486.151 70.964L483.555 69.1495L482.506 82.2363L482.794 82.5251C486.563 86.3019 491.994 86.3517 495.799 82.645L496.356 82.1029L495.217 69.4374Z" fill="#DE9A8C"/>
<path d="M503.658 49.1416C503.686 54.8225 502.879 59.7291 502.064 63.2129C501.267 66.6233 498.989 69.0154 495.763 70.949L495.175 71.3011C491.761 73.3453 487.337 73.4154 483.851 71.4801C480.335 69.5271 477.866 66.9416 477.094 63.2906C475.686 56.6497 475.499 49.2868 475.499 49.2868C475.499 49.2868 474.323 33.9211 489.51 34.1212C504.699 34.3213 503.658 49.1416 503.658 49.1416Z" fill="#DE9A8C"/>
<path d="M484.26 53.7203C484.26 54.4119 483.709 54.9717 483.031 54.9717C482.353 54.9717 481.802 54.4119 481.802 53.7203C481.802 53.0288 482.353 52.469 483.031 52.469C483.709 52.469 484.26 53.0288 484.26 53.7203Z" fill="#1E0B02"/>
<path d="M496.319 53.7203C496.319 54.4119 495.769 54.9717 495.09 54.9717C494.411 54.9717 493.862 54.4119 493.862 53.7203C493.862 53.0288 494.411 52.469 495.09 52.469C495.769 52.469 496.319 53.0288 496.319 53.7203Z" fill="#1E0B02"/>
<path d="M487.657 56.75V58.9994C487.657 59.0771 487.688 59.1522 487.742 59.2071C487.796 59.262 487.869 59.2932 487.946 59.2932H489.436C489.595 59.2932 489.724 59.1615 489.724 58.9994C489.724 58.8373 489.595 58.7064 489.436 58.7064H488.233V56.75C488.233 56.5879 488.105 56.4562 487.946 56.4562C487.786 56.4562 487.657 56.5879 487.657 56.75Z" fill="#C47268"/>
<path d="M478.453 48.4314L486.482 47.6943C486.482 47.6943 485.763 45.5749 482.517 45.9186C479.195 46.2707 478.453 48.4314 478.453 48.4314Z" fill="black"/>
<path d="M499.15 48.4314L491.121 47.6943C491.121 47.6943 491.84 45.5749 495.086 45.9186C498.408 46.2707 499.15 48.4314 499.15 48.4314Z" fill="black"/>
<path d="M484.077 61.0453C484.103 61.0664 485.701 62.414 488.204 62.4174C488.653 62.4174 489.132 62.3735 489.633 62.2697C489.789 62.2376 489.89 62.0822 489.858 61.9235C489.826 61.7647 489.675 61.6626 489.518 61.6946C489.055 61.7901 488.617 61.8306 488.204 61.8306C487.058 61.8306 486.113 61.5182 485.456 61.2058C485.126 61.0496 484.87 60.8933 484.698 60.7785C484.611 60.7203 484.547 60.673 484.504 60.64L484.456 60.6037L484.444 60.5936C484.321 60.4897 484.14 60.5075 484.038 60.6324C483.936 60.7574 483.954 60.9423 484.077 61.0453Z" fill="black"/>
<path d="M475.909 43.6235C475.909 43.6235 485.8 35.8249 503.674 43.6235C503.674 43.6235 502.098 32.2955 489.791 32.2955C477.484 32.2955 475.909 43.6235 475.909 43.6235Z" fill="white"/>
<path d="M492.166 70.8821C490.336 71.7982 488.168 71.7923 486.35 70.8526C479.411 67.2682 475.84 58.6735 476.269 49.2386C476.511 43.9359 479.627 40.2224 482.774 37.8042C486.756 34.7442 492.221 34.7442 496.203 37.8042C499.35 40.2224 502.466 43.9359 502.708 49.2386C503.139 58.7165 499.245 67.3375 492.166 70.8821ZM508.951 47.9636C507.88 37.7054 500.923 32.3091 495.969 30.2665C491.877 28.5803 487.276 28.5829 483.174 30.2437C478.161 32.2736 471.101 37.6657 470.026 47.9636C468.602 61.627 479.173 75.4915 479.173 75.4915L489.412 72.9322L499.939 75.4915C499.939 75.4915 510.376 61.627 508.951 47.9636Z" fill="#7B97FB"/>
<path d="M480.262 72.885L466.076 82.4855C466.076 82.4855 484.26 97.912 513.834 83.2935L498.998 72.885H480.262Z" fill="#7B97FB"/>
<path d="M478.347 82.3385C478.369 82.3478 483.23 84.3489 490.302 84.3497C495.332 84.3497 501.482 83.3348 507.79 79.8645C507.926 79.7893 507.977 79.6171 507.903 79.4786C507.83 79.341 507.661 79.2895 507.525 79.3638C501.311 82.7826 495.26 83.7806 490.302 83.7815C486.818 83.7815 483.877 83.2867 481.809 82.7936C480.775 82.547 479.959 82.3005 479.403 82.1155C479.125 82.0235 478.912 81.9467 478.77 81.8935C478.627 81.8403 478.557 81.8116 478.557 81.8116C478.414 81.7525 478.251 81.8234 478.193 81.9686C478.136 82.1139 478.205 82.2802 478.347 82.3385Z" fill="#6081EA"/>
</svg>
